<svg width="204" height="204" viewBox="0 0 204 204" fill="none" xmlns="http://www.w3.org/2000/svg">
<path d="M173.466 44.784C177.972 41.1763 184.601 41.8796 187.729 46.7312C197.439 61.793 203.044 79.2052 203.888 97.2289C204.896 118.746 199.066 140.029 187.234 158.029C175.402 176.028 158.175 189.82 138.023 197.427C117.871 205.035 95.8273 206.067 75.0523 200.376C54.2774 194.685 35.8373 182.564 22.375 165.748C8.91264 148.933 1.1192 128.288 0.111646 106.771C-0.89591 85.2544 4.93414 63.971 16.7662 45.9714C26.6775 30.8939 40.3739 18.7689 56.4044 10.7582C61.5681 8.17785 67.6298 10.9507 69.6685 16.3513V16.3513C71.7071 21.7518 68.9392 27.7243 63.8455 30.4402C51.919 36.7992 41.719 46.0676 34.2341 57.454C24.8269 71.7647 20.1917 88.6863 20.9928 105.793C21.7938 122.9 27.9901 139.315 38.6934 152.684C49.3968 166.053 64.0577 175.69 80.575 180.215C97.0923 184.739 114.618 183.918 130.64 177.87C146.662 171.822 160.359 160.857 169.766 146.546C179.173 132.235 183.808 115.314 183.007 98.2067C182.37 84.5955 178.317 71.4228 171.296 59.8736C168.297 54.941 168.96 48.3917 173.466 44.784V44.784Z" fill="url(#paint0_linear_104_54)"/>
<path d="M74.271 115.507C72.971 115.507 71.723 115.325 70.527 114.961C69.331 114.571 68.265 114.012 67.329 113.284C66.419 112.556 65.691 111.672 65.145 110.632C64.599 109.592 64.326 108.409 64.326 107.083C64.326 106.251 64.456 105.484 64.716 104.782C64.976 104.08 65.314 103.456 65.73 102.91C66.172 102.364 66.653 101.896 67.173 101.506C67.719 101.116 68.265 100.804 68.811 100.57C67.875 100.076 67.082 99.374 66.432 98.464C65.782 97.554 65.457 96.475 65.457 95.227C65.457 94.109 65.691 93.095 66.159 92.185C66.627 91.249 67.264 90.456 68.07 89.806C68.876 89.13 69.812 88.623 70.878 88.285C71.944 87.921 73.075 87.739 74.271 87.739C75.467 87.739 76.598 87.921 77.664 88.285C78.73 88.623 79.666 89.13 80.472 89.806C81.278 90.456 81.915 91.249 82.383 92.185C82.851 93.095 83.085 94.109 83.085 95.227C83.085 96.475 82.76 97.554 82.11 98.464C81.46 99.374 80.667 100.076 79.731 100.57C80.277 100.804 80.81 101.116 81.33 101.506C81.876 101.896 82.357 102.364 82.773 102.91C83.215 103.456 83.566 104.08 83.826 104.782C84.086 105.484 84.216 106.251 84.216 107.083C84.216 108.409 83.943 109.592 83.397 110.632C82.851 111.672 82.11 112.556 81.174 113.284C80.264 114.012 79.211 114.571 78.015 114.961C76.819 115.325 75.571 115.507 74.271 115.507ZM74.271 110.671C75.493 110.671 76.507 110.32 77.313 109.618C78.145 108.89 78.561 107.967 78.561 106.849C78.561 105.705 78.145 104.782 77.313 104.08C76.507 103.378 75.493 103.027 74.271 103.027C73.049 103.027 72.022 103.378 71.19 104.08C70.384 104.782 69.981 105.705 69.981 106.849C69.981 107.967 70.384 108.89 71.19 109.618C72.022 110.32 73.049 110.671 74.271 110.671ZM77.82 95.578C77.82 94.668 77.469 93.927 76.767 93.355C76.091 92.757 75.259 92.458 74.271 92.458C73.283 92.458 72.438 92.757 71.736 93.355C71.06 93.927 70.722 94.668 70.722 95.578C70.722 96.54 71.06 97.307 71.736 97.879C72.438 98.451 73.283 98.737 74.271 98.737C75.259 98.737 76.091 98.451 76.767 97.879C77.469 97.307 77.82 96.54 77.82 95.578ZM87.2629 101.623C87.2629 99.803 87.4969 98.061 87.9649 96.397C88.4589 94.707 89.1869 93.225 90.1489 91.951C91.1109 90.677 92.3069 89.663 93.7369 88.909C95.1669 88.129 96.8309 87.739 98.7289 87.739C100.627 87.739 102.291 88.129 103.721 88.909C105.151 89.663 106.347 90.677 107.309 91.951C108.271 93.225 108.986 94.707 109.454 96.397C109.948 98.061 110.195 99.803 110.195 101.623C110.195 103.443 109.948 105.198 109.454 106.888C108.986 108.552 108.271 110.021 107.309 111.295C106.347 112.569 105.151 113.596 103.721 114.376C102.291 115.13 100.627 115.507 98.7289 115.507C96.8309 115.507 95.1669 115.13 93.7369 114.376C92.3069 113.596 91.1109 112.569 90.1489 111.295C89.1869 110.021 88.4589 108.552 87.9649 106.888C87.4969 105.198 87.2629 103.443 87.2629 101.623ZM104.384 101.623C104.384 100.557 104.267 99.517 104.033 98.503C103.825 97.489 103.487 96.592 103.019 95.812C102.577 95.006 101.992 94.369 101.264 93.901C100.562 93.407 99.7169 93.16 98.7289 93.16C97.7409 93.16 96.8829 93.407 96.1549 93.901C95.4529 94.369 94.8679 95.006 94.3999 95.812C93.9579 96.592 93.6199 97.489 93.3859 98.503C93.1779 99.517 93.0739 100.557 93.0739 101.623C93.0739 102.689 93.1779 103.729 93.3859 104.743C93.6199 105.757 93.9579 106.667 94.3999 107.473C94.8679 108.253 95.4529 108.89 96.1549 109.384C96.8829 109.852 97.7409 110.086 98.7289 110.086C99.7169 110.086 100.562 109.852 101.264 109.384C101.992 108.89 102.577 108.253 103.019 107.473C103.487 106.667 103.825 105.757 104.033 104.743C104.267 103.729 104.384 102.689 104.384 101.623ZM126.488 94.33C126.488 95.24 126.306 96.085 125.942 96.865C125.604 97.645 125.123 98.334 124.499 98.932C123.901 99.504 123.199 99.959 122.393 100.297C121.587 100.609 120.716 100.765 119.78 100.765C118.844 100.765 117.973 100.609 117.167 100.297C116.361 99.959 115.659 99.504 115.061 98.932C114.463 98.334 113.982 97.645 113.618 96.865C113.28 96.085 113.111 95.24 113.111 94.33C113.111 93.42 113.28 92.575 113.618 91.795C113.982 91.015 114.463 90.339 115.061 89.767C115.659 89.169 116.361 88.714 117.167 88.402C117.973 88.064 118.844 87.895 119.78 87.895C120.716 87.895 121.587 88.064 122.393 88.402C123.199 88.714 123.901 89.169 124.499 89.767C125.123 90.339 125.604 91.015 125.942 91.795C126.306 92.575 126.488 93.42 126.488 94.33ZM119.78 97.021C120.534 97.021 121.158 96.761 121.652 96.241C122.146 95.721 122.393 95.084 122.393 94.33C122.393 93.576 122.146 92.939 121.652 92.419C121.158 91.899 120.534 91.639 119.78 91.639C119.026 91.639 118.402 91.899 117.908 92.419C117.414 92.939 117.167 93.576 117.167 94.33C117.167 95.084 117.414 95.721 117.908 96.241C118.402 96.761 119.026 97.021 119.78 97.021ZM115.568 115L135.419 88.207H140.606L120.755 115H115.568ZM136.355 115.312C135.419 115.312 134.548 115.156 133.742 114.844C132.936 114.506 132.234 114.051 131.636 113.479C131.038 112.881 130.557 112.192 130.193 111.412C129.855 110.632 129.686 109.787 129.686 108.877C129.686 107.967 129.855 107.122 130.193 106.342C130.557 105.562 131.038 104.886 131.636 104.314C132.234 103.716 132.936 103.261 133.742 102.949C134.548 102.611 135.419 102.442 136.355 102.442C137.291 102.442 138.162 102.611 138.968 102.949C139.8 103.261 140.515 103.716 141.113 104.314C141.711 104.886 142.179 105.562 142.517 106.342C142.881 107.122 143.063 107.967 143.063 108.877C143.063 109.787 142.881 110.632 142.517 111.412C142.179 112.192 141.711 112.881 141.113 113.479C140.515 114.051 139.8 114.506 138.968 114.844C138.162 115.156 137.291 115.312 136.355 115.312ZM136.355 111.568C137.109 111.568 137.733 111.308 138.227 110.788C138.747 110.268 139.007 109.631 139.007 108.877C139.007 108.123 138.747 107.486 138.227 106.966C137.733 106.446 137.109 106.186 136.355 106.186C135.601 106.186 134.977 106.446 134.483 106.966C133.989 107.486 133.742 108.123 133.742 108.877C133.742 109.631 133.989 110.268 134.483 110.788C134.977 111.308 135.601 111.568 136.355 111.568Z" fill="white"/>
<defs>
<linearGradient id="paint0_linear_104_54" x1="-12.4345" y1="91.2145" x2="228.124" y2="92.098" gradientUnits="userSpaceOnUse">
<stop stop-color="#AA367C"/>
<stop offset="1" stop-color="#4A2FBD"/>
</linearGradient>
</defs>
</svg>
