<svg width="204" height="204" viewBox="0 0 204 204" fill="none" xmlns="http://www.w3.org/2000/svg">
<path d="M173.466 44.784C177.972 41.1763 184.601 41.8798 187.729 46.7314C198.904 64.0654 204.608 84.4605 203.949 105.238C203.178 129.512 193.771 152.715 177.42 170.672C161.069 188.63 138.846 200.164 114.75 203.2C90.6544 206.236 66.2658 200.574 45.9714 187.234C25.677 173.893 10.8086 153.749 4.04061 130.425C-2.72738 107.1 -0.950802 82.1262 9.05079 59.9947C19.0524 37.8632 36.6226 20.0267 58.6011 9.69324C77.4133 0.848526 98.3983 -2.00236 118.743 1.38331C124.437 2.33092 127.711 8.13733 126.186 13.7047V13.7047C124.661 19.2721 118.911 22.477 113.194 21.6801C97.6856 19.5186 81.8003 21.8851 67.4953 28.6107C50.0211 36.8264 36.0518 51.0075 28.0999 68.6033C20.1481 86.1992 18.7356 106.055 24.1165 124.599C29.4975 143.144 41.3187 159.159 57.454 169.766C73.5892 180.372 92.9796 184.874 112.137 182.46C131.295 180.046 148.963 170.876 161.963 156.598C174.963 142.321 182.442 123.874 183.055 104.574C183.557 88.7749 179.43 73.2535 171.296 59.8736C168.297 54.941 168.96 48.3917 173.466 44.784V44.784Z" fill="url(#paint0_linear_104_66)"/>
<path d="M64.326 97.606C64.326 96.202 64.586 94.902 65.106 93.706C65.626 92.484 66.341 91.444 67.251 90.586C68.161 89.702 69.227 89.013 70.449 88.519C71.697 87.999 73.049 87.739 74.505 87.739C75.961 87.739 77.3 87.986 78.522 88.48C79.77 88.974 80.849 89.663 81.759 90.547C82.669 91.405 83.384 92.432 83.904 93.628C84.424 94.824 84.684 96.124 84.684 97.528C84.684 98.75 84.437 99.959 83.943 101.155C83.475 102.325 82.825 103.612 81.993 105.016L76.143 115H69.669L74.856 106.459C74.57 106.563 74.284 106.628 73.998 106.654C73.712 106.68 73.452 106.693 73.218 106.693C71.918 106.693 70.722 106.459 69.63 105.991C68.564 105.497 67.628 104.847 66.822 104.041C66.042 103.209 65.431 102.247 64.989 101.155C64.547 100.037 64.326 98.854 64.326 97.606ZM69.981 97.411C69.981 98.035 70.098 98.62 70.332 99.166C70.566 99.712 70.891 100.18 71.307 100.57C71.723 100.96 72.204 101.272 72.75 101.506C73.296 101.74 73.881 101.857 74.505 101.857C75.129 101.857 75.714 101.74 76.26 101.506C76.832 101.272 77.313 100.96 77.703 100.57C78.119 100.18 78.444 99.725 78.678 99.205C78.912 98.659 79.029 98.074 79.029 97.45C79.029 96.826 78.912 96.241 78.678 95.695C78.444 95.149 78.119 94.681 77.703 94.291C77.313 93.875 76.845 93.55 76.299 93.316C75.753 93.082 75.168 92.965 74.544 92.965C73.92 92.965 73.322 93.082 72.75 93.316C72.204 93.55 71.723 93.875 71.307 94.291C70.891 94.681 70.566 95.149 70.332 95.695C70.098 96.215 69.981 96.787 69.981 97.411ZM87.9103 101.623C87.9103 99.803 88.1443 98.061 88.6123 96.397C89.1063 94.707 89.8343 93.225 90.7963 91.951C91.7583 90.677 92.9543 89.663 94.3843 88.909C95.8143 88.129 97.4783 87.739 99.3763 87.739C101.274 87.739 102.938 88.129 104.368 88.909C105.798 89.663 106.994 90.677 107.956 91.951C108.918 93.225 109.633 94.707 110.101 96.397C110.595 98.061 110.842 99.803 110.842 101.623C110.842 103.443 110.595 105.198 110.101 106.888C109.633 108.552 108.918 110.021 107.956 111.295C106.994 112.569 105.798 113.596 104.368 114.376C102.938 115.13 101.274 115.507 99.3763 115.507C97.4783 115.507 95.8143 115.13 94.3843 114.376C92.9543 113.596 91.7583 112.569 90.7963 111.295C89.8343 110.021 89.1063 108.552 88.6123 106.888C88.1443 105.198 87.9103 103.443 87.9103 101.623ZM105.031 101.623C105.031 100.557 104.914 99.517 104.68 98.503C104.472 97.489 104.134 96.592 103.666 95.812C103.224 95.006 102.639 94.369 101.911 93.901C101.209 93.407 100.364 93.16 99.3763 93.16C98.3883 93.16 97.5303 93.407 96.8023 93.901C96.1003 94.369 95.5153 95.006 95.0473 95.812C94.6053 96.592 94.2673 97.489 94.0333 98.503C93.8253 99.517 93.7213 100.557 93.7213 101.623C93.7213 102.689 93.8253 103.729 94.0333 104.743C94.2673 105.757 94.6053 106.667 95.0473 107.473C95.5153 108.253 96.1003 108.89 96.8023 109.384C97.5303 109.852 98.3883 110.086 99.3763 110.086C100.364 110.086 101.209 109.852 101.911 109.384C102.639 108.89 103.224 108.253 103.666 107.473C104.134 106.667 104.472 105.757 104.68 104.743C104.914 103.729 105.031 102.689 105.031 101.623ZM127.136 94.33C127.136 95.24 126.954 96.085 126.59 96.865C126.252 97.645 125.771 98.334 125.147 98.932C124.549 99.504 123.847 99.959 123.041 100.297C122.235 100.609 121.364 100.765 120.428 100.765C119.492 100.765 118.621 100.609 117.815 100.297C117.009 99.959 116.307 99.504 115.709 98.932C115.111 98.334 114.63 97.645 114.266 96.865C113.928 96.085 113.759 95.24 113.759 94.33C113.759 93.42 113.928 92.575 114.266 91.795C114.63 91.015 115.111 90.339 115.709 89.767C116.307 89.169 117.009 88.714 117.815 88.402C118.621 88.064 119.492 87.895 120.428 87.895C121.364 87.895 122.235 88.064 123.041 88.402C123.847 88.714 124.549 89.169 125.147 89.767C125.771 90.339 126.252 91.015 126.59 91.795C126.954 92.575 127.136 93.42 127.136 94.33ZM120.428 97.021C121.182 97.021 121.806 96.761 122.3 96.241C122.794 95.721 123.041 95.084 123.041 94.33C123.041 93.576 122.794 92.939 122.3 92.419C121.806 91.899 121.182 91.639 120.428 91.639C119.674 91.639 119.05 91.899 118.556 92.419C118.062 92.939 117.815 93.576 117.815 94.33C117.815 95.084 118.062 95.721 118.556 96.241C119.05 96.761 119.674 97.021 120.428 97.021ZM116.216 115L136.067 88.207H141.254L121.403 115H116.216ZM137.003 115.312C136.067 115.312 135.196 115.156 134.39 114.844C133.584 114.506 132.882 114.051 132.284 113.479C131.686 112.881 131.205 112.192 130.841 111.412C130.503 110.632 130.334 109.787 130.334 108.877C130.334 107.967 130.503 107.122 130.841 106.342C131.205 105.562 131.686 104.886 132.284 104.314C132.882 103.716 133.584 103.261 134.39 102.949C135.196 102.611 136.067 102.442 137.003 102.442C137.939 102.442 138.81 102.611 139.616 102.949C140.448 103.261 141.163 103.716 141.761 104.314C142.359 104.886 142.827 105.562 143.165 106.342C143.529 107.122 143.711 107.967 143.711 108.877C143.711 109.787 143.529 110.632 143.165 111.412C142.827 112.192 142.359 112.881 141.761 113.479C141.163 114.051 140.448 114.506 139.616 114.844C138.81 115.156 137.939 115.312 137.003 115.312ZM137.003 111.568C137.757 111.568 138.381 111.308 138.875 110.788C139.395 110.268 139.655 109.631 139.655 108.877C139.655 108.123 139.395 107.486 138.875 106.966C138.381 106.446 137.757 106.186 137.003 106.186C136.249 106.186 135.625 106.446 135.131 106.966C134.637 107.486 134.39 108.123 134.39 108.877C134.39 109.631 134.637 110.268 135.131 110.788C135.625 111.308 136.249 111.568 137.003 111.568Z" fill="white"/>
<defs>
<linearGradient id="paint0_linear_104_66" x1="-12.4345" y1="91.2145" x2="228.124" y2="92.098" gradientUnits="userSpaceOnUse">
<stop stop-color="#AA367C"/>
<stop offset="1" stop-color="#4A2FBD"/>
</linearGradient>
</defs>
</svg>
