<svg width="204" height="204" viewBox="0 0 204 204" fill="none" xmlns="http://www.w3.org/2000/svg">
<path d="M173.466 44.784C177.972 41.1763 184.601 41.8796 187.729 46.7312C197.439 61.793 203.044 79.2052 203.888 97.2289C204.732 115.253 200.779 133.112 192.518 149.016C189.857 154.138 183.323 155.458 178.5 152.287V152.287C173.676 149.116 172.405 142.658 174.929 137.466C180.84 125.312 183.645 111.818 183.007 98.2067C182.37 84.5955 178.317 71.4228 171.296 59.8736C168.297 54.941 168.96 48.3917 173.466 44.784V44.784Z" fill="url(#paint0_linear_104_51)"/>
<path d="M64.443 115V110.905L73.218 102.208C73.842 101.61 74.362 101.077 74.778 100.609C75.194 100.115 75.519 99.66 75.753 99.244C75.987 98.828 76.156 98.425 76.26 98.035C76.364 97.619 76.416 97.19 76.416 96.748C76.416 95.656 76 94.772 75.168 94.096C74.362 93.42 73.309 93.082 72.009 93.082C70.761 93.082 69.552 93.407 68.382 94.057C67.238 94.707 66.133 95.617 65.067 96.787V90.664C66.107 89.728 67.264 89.013 68.538 88.519C69.838 87.999 71.151 87.739 72.477 87.739C73.829 87.739 75.09 87.934 76.26 88.324C77.43 88.714 78.457 89.273 79.341 90.001C80.225 90.729 80.914 91.613 81.408 92.653C81.928 93.693 82.188 94.85 82.188 96.124C82.188 97.892 81.798 99.491 81.018 100.921C80.238 102.351 79.003 103.846 77.313 105.406L72.516 109.852H82.617V115H64.443ZM85.7394 101.623C85.7394 99.803 85.9734 98.061 86.4414 96.397C86.9354 94.707 87.6634 93.225 88.6254 91.951C89.5874 90.677 90.7834 89.663 92.2134 88.909C93.6434 88.129 95.3074 87.739 97.2054 87.739C99.1034 87.739 100.767 88.129 102.197 88.909C103.627 89.663 104.823 90.677 105.785 91.951C106.747 93.225 107.462 94.707 107.93 96.397C108.424 98.061 108.671 99.803 108.671 101.623C108.671 103.443 108.424 105.198 107.93 106.888C107.462 108.552 106.747 110.021 105.785 111.295C104.823 112.569 103.627 113.596 102.197 114.376C100.767 115.13 99.1034 115.507 97.2054 115.507C95.3074 115.507 93.6434 115.13 92.2134 114.376C90.7834 113.596 89.5874 112.569 88.6254 111.295C87.6634 110.021 86.9354 108.552 86.4414 106.888C85.9734 105.198 85.7394 103.443 85.7394 101.623ZM102.86 101.623C102.86 100.557 102.743 99.517 102.509 98.503C102.301 97.489 101.963 96.592 101.495 95.812C101.053 95.006 100.468 94.369 99.7404 93.901C99.0384 93.407 98.1934 93.16 97.2054 93.16C96.2174 93.16 95.3594 93.407 94.6314 93.901C93.9294 94.369 93.3444 95.006 92.8764 95.812C92.4344 96.592 92.0964 97.489 91.8624 98.503C91.6544 99.517 91.5504 100.557 91.5504 101.623C91.5504 102.689 91.6544 103.729 91.8624 104.743C92.0964 105.757 92.4344 106.667 92.8764 107.473C93.3444 108.253 93.9294 108.89 94.6314 109.384C95.3594 109.852 96.2174 110.086 97.2054 110.086C98.1934 110.086 99.0384 109.852 99.7404 109.384C100.468 108.89 101.053 108.253 101.495 107.473C101.963 106.667 102.301 105.757 102.509 104.743C102.743 103.729 102.86 102.689 102.86 101.623ZM124.965 94.33C124.965 95.24 124.783 96.085 124.419 96.865C124.081 97.645 123.6 98.334 122.976 98.932C122.378 99.504 121.676 99.959 120.87 100.297C120.064 100.609 119.193 100.765 118.257 100.765C117.321 100.765 116.45 100.609 115.644 100.297C114.838 99.959 114.136 99.504 113.538 98.932C112.94 98.334 112.459 97.645 112.095 96.865C111.757 96.085 111.588 95.24 111.588 94.33C111.588 93.42 111.757 92.575 112.095 91.795C112.459 91.015 112.94 90.339 113.538 89.767C114.136 89.169 114.838 88.714 115.644 88.402C116.45 88.064 117.321 87.895 118.257 87.895C119.193 87.895 120.064 88.064 120.87 88.402C121.676 88.714 122.378 89.169 122.976 89.767C123.6 90.339 124.081 91.015 124.419 91.795C124.783 92.575 124.965 93.42 124.965 94.33ZM118.257 97.021C119.011 97.021 119.635 96.761 120.129 96.241C120.623 95.721 120.87 95.084 120.87 94.33C120.87 93.576 120.623 92.939 120.129 92.419C119.635 91.899 119.011 91.639 118.257 91.639C117.503 91.639 116.879 91.899 116.385 92.419C115.891 92.939 115.644 93.576 115.644 94.33C115.644 95.084 115.891 95.721 116.385 96.241C116.879 96.761 117.503 97.021 118.257 97.021ZM114.045 115L133.896 88.207H139.083L119.232 115H114.045ZM134.832 115.312C133.896 115.312 133.025 115.156 132.219 114.844C131.413 114.506 130.711 114.051 130.113 113.479C129.515 112.881 129.034 112.192 128.67 111.412C128.332 110.632 128.163 109.787 128.163 108.877C128.163 107.967 128.332 107.122 128.67 106.342C129.034 105.562 129.515 104.886 130.113 104.314C130.711 103.716 131.413 103.261 132.219 102.949C133.025 102.611 133.896 102.442 134.832 102.442C135.768 102.442 136.639 102.611 137.445 102.949C138.277 103.261 138.992 103.716 139.59 104.314C140.188 104.886 140.656 105.562 140.994 106.342C141.358 107.122 141.54 107.967 141.54 108.877C141.54 109.787 141.358 110.632 140.994 111.412C140.656 112.192 140.188 112.881 139.59 113.479C138.992 114.051 138.277 114.506 137.445 114.844C136.639 115.156 135.768 115.312 134.832 115.312ZM134.832 111.568C135.586 111.568 136.21 111.308 136.704 110.788C137.224 110.268 137.484 109.631 137.484 108.877C137.484 108.123 137.224 107.486 136.704 106.966C136.21 106.446 135.586 106.186 134.832 106.186C134.078 106.186 133.454 106.446 132.96 106.966C132.466 107.486 132.219 108.123 132.219 108.877C132.219 109.631 132.466 110.268 132.96 110.788C133.454 111.308 134.078 111.568 134.832 111.568Z" fill="white"/>
<defs>
<linearGradient id="paint0_linear_104_51" x1="-12.4345" y1="91.2145" x2="228.124" y2="92.098" gradientUnits="userSpaceOnUse">
<stop stop-color="#AA367C"/>
<stop offset="1" stop-color="#4A2FBD"/>
</linearGradient>
</defs>
</svg>
