<svg width="204" height="204" viewBox="0 0 204 204" fill="none" xmlns="http://www.w3.org/2000/svg">
<path d="M173.466 44.784C177.972 41.1763 184.601 41.8795 187.728 46.7311C195.98 59.5297 201.285 74.0536 203.2 89.2495C205.551 107.913 202.696 126.863 194.949 144.005C187.203 161.147 174.866 175.813 159.305 186.381C143.743 196.949 125.562 203.008 106.771 203.888C87.9806 204.768 69.3128 200.435 52.8315 191.367C36.3503 182.299 22.6976 168.85 13.3829 152.507C4.06815 136.164 -0.5457 117.564 0.0513976 98.7623C0.537558 83.4539 4.46281 68.4978 11.4819 54.9841C14.1427 49.8615 20.6765 48.5419 25.5002 51.7127V51.7127C30.3238 54.8835 31.5952 61.3423 29.0706 66.5335C24.0934 76.7681 21.3086 87.973 20.9449 99.4259C20.4701 114.374 24.1384 129.163 31.5442 142.156C38.9499 155.15 49.8046 165.843 62.9082 173.052C76.0117 180.261 90.8538 183.707 105.793 183.007C120.733 182.308 135.188 177.49 147.56 169.088C159.933 160.686 169.741 149.025 175.9 135.397C182.059 121.768 184.329 106.701 182.46 91.8626C181.028 80.4939 177.208 69.5983 171.296 59.8735C168.297 54.941 168.96 48.3917 173.466 44.784V44.784Z" fill="url(#paint0_linear_104_63)"/>
<path d="M72.477 115H66.081L76.65 93.394H64.248V88.246H83.241V92.419L72.477 115ZM85.9299 101.623C85.9299 99.803 86.1639 98.061 86.6319 96.397C87.1259 94.707 87.8539 93.225 88.8159 91.951C89.7779 90.677 90.9739 89.663 92.4039 88.909C93.8339 88.129 95.4979 87.739 97.3959 87.739C99.2939 87.739 100.958 88.129 102.388 88.909C103.818 89.663 105.014 90.677 105.976 91.951C106.938 93.225 107.653 94.707 108.121 96.397C108.615 98.061 108.862 99.803 108.862 101.623C108.862 103.443 108.615 105.198 108.121 106.888C107.653 108.552 106.938 110.021 105.976 111.295C105.014 112.569 103.818 113.596 102.388 114.376C100.958 115.13 99.2939 115.507 97.3959 115.507C95.4979 115.507 93.8339 115.13 92.4039 114.376C90.9739 113.596 89.7779 112.569 88.8159 111.295C87.8539 110.021 87.1259 108.552 86.6319 106.888C86.1639 105.198 85.9299 103.443 85.9299 101.623ZM103.051 101.623C103.051 100.557 102.934 99.517 102.7 98.503C102.492 97.489 102.154 96.592 101.686 95.812C101.244 95.006 100.659 94.369 99.9309 93.901C99.2289 93.407 98.3839 93.16 97.3959 93.16C96.4079 93.16 95.5499 93.407 94.8219 93.901C94.1199 94.369 93.5349 95.006 93.0669 95.812C92.6249 96.592 92.2869 97.489 92.0529 98.503C91.8449 99.517 91.7409 100.557 91.7409 101.623C91.7409 102.689 91.8449 103.729 92.0529 104.743C92.2869 105.757 92.6249 106.667 93.0669 107.473C93.5349 108.253 94.1199 108.89 94.8219 109.384C95.5499 109.852 96.4079 110.086 97.3959 110.086C98.3839 110.086 99.2289 109.852 99.9309 109.384C100.659 108.89 101.244 108.253 101.686 107.473C102.154 106.667 102.492 105.757 102.7 104.743C102.934 103.729 103.051 102.689 103.051 101.623ZM125.155 94.33C125.155 95.24 124.973 96.085 124.609 96.865C124.271 97.645 123.79 98.334 123.166 98.932C122.568 99.504 121.866 99.959 121.06 100.297C120.254 100.609 119.383 100.765 118.447 100.765C117.511 100.765 116.64 100.609 115.834 100.297C115.028 99.959 114.326 99.504 113.728 98.932C113.13 98.334 112.649 97.645 112.285 96.865C111.947 96.085 111.778 95.24 111.778 94.33C111.778 93.42 111.947 92.575 112.285 91.795C112.649 91.015 113.13 90.339 113.728 89.767C114.326 89.169 115.028 88.714 115.834 88.402C116.64 88.064 117.511 87.895 118.447 87.895C119.383 87.895 120.254 88.064 121.06 88.402C121.866 88.714 122.568 89.169 123.166 89.767C123.79 90.339 124.271 91.015 124.609 91.795C124.973 92.575 125.155 93.42 125.155 94.33ZM118.447 97.021C119.201 97.021 119.825 96.761 120.319 96.241C120.813 95.721 121.06 95.084 121.06 94.33C121.06 93.576 120.813 92.939 120.319 92.419C119.825 91.899 119.201 91.639 118.447 91.639C117.693 91.639 117.069 91.899 116.575 92.419C116.081 92.939 115.834 93.576 115.834 94.33C115.834 95.084 116.081 95.721 116.575 96.241C117.069 96.761 117.693 97.021 118.447 97.021ZM114.235 115L134.086 88.207H139.273L119.422 115H114.235ZM135.022 115.312C134.086 115.312 133.215 115.156 132.409 114.844C131.603 114.506 130.901 114.051 130.303 113.479C129.705 112.881 129.224 112.192 128.86 111.412C128.522 110.632 128.353 109.787 128.353 108.877C128.353 107.967 128.522 107.122 128.86 106.342C129.224 105.562 129.705 104.886 130.303 104.314C130.901 103.716 131.603 103.261 132.409 102.949C133.215 102.611 134.086 102.442 135.022 102.442C135.958 102.442 136.829 102.611 137.635 102.949C138.467 103.261 139.182 103.716 139.78 104.314C140.378 104.886 140.846 105.562 141.184 106.342C141.548 107.122 141.73 107.967 141.73 108.877C141.73 109.787 141.548 110.632 141.184 111.412C140.846 112.192 140.378 112.881 139.78 113.479C139.182 114.051 138.467 114.506 137.635 114.844C136.829 115.156 135.958 115.312 135.022 115.312ZM135.022 111.568C135.776 111.568 136.4 111.308 136.894 110.788C137.414 110.268 137.674 109.631 137.674 108.877C137.674 108.123 137.414 107.486 136.894 106.966C136.4 106.446 135.776 106.186 135.022 106.186C134.268 106.186 133.644 106.446 133.15 106.966C132.656 107.486 132.409 108.123 132.409 108.877C132.409 109.631 132.656 110.268 133.15 110.788C133.644 111.308 134.268 111.568 135.022 111.568Z" fill="white"/>
<defs>
<linearGradient id="paint0_linear_104_63" x1="-12.4345" y1="91.2145" x2="228.124" y2="92.098" gradientUnits="userSpaceOnUse">
<stop stop-color="#AA367C"/>
<stop offset="1" stop-color="#4A2FBD"/>
</linearGradient>
</defs>
</svg>
