<svg width="204" height="204" viewBox="0 0 204 204" fill="none" xmlns="http://www.w3.org/2000/svg">
<path d="M173.466 44.784C177.972 41.1763 184.601 41.8796 187.729 46.7312C195.557 58.8739 200.717 72.5444 202.866 86.8313C203.724 92.5396 199.214 97.4478 193.448 97.7178V97.7178C187.682 97.9878 182.857 93.5098 181.848 87.8261C180.092 77.9362 176.514 68.4566 171.296 59.8736C168.297 54.941 168.96 48.3917 173.466 44.784V44.784Z" fill="url(#paint0_linear_104_57)"/>
<path d="M69.006 115V94.447L64.17 96.319V90.664L70.215 88.207H74.778V115H69.006ZM79.4172 101.623C79.4172 99.803 79.6512 98.061 80.1192 96.397C80.6132 94.707 81.3412 93.225 82.3032 91.951C83.2652 90.677 84.4612 89.663 85.8912 88.909C87.3212 88.129 88.9852 87.739 90.8832 87.739C92.7812 87.739 94.4452 88.129 95.8752 88.909C97.3052 89.663 98.5012 90.677 99.4632 91.951C100.425 93.225 101.14 94.707 101.608 96.397C102.102 98.061 102.349 99.803 102.349 101.623C102.349 103.443 102.102 105.198 101.608 106.888C101.14 108.552 100.425 110.021 99.4632 111.295C98.5012 112.569 97.3052 113.596 95.8752 114.376C94.4452 115.13 92.7812 115.507 90.8832 115.507C88.9852 115.507 87.3212 115.13 85.8912 114.376C84.4612 113.596 83.2652 112.569 82.3032 111.295C81.3412 110.021 80.6132 108.552 80.1192 106.888C79.6512 105.198 79.4172 103.443 79.4172 101.623ZM96.5382 101.623C96.5382 100.557 96.4212 99.517 96.1872 98.503C95.9792 97.489 95.6412 96.592 95.1732 95.812C94.7312 95.006 94.1462 94.369 93.4182 93.901C92.7162 93.407 91.8712 93.16 90.8832 93.16C89.8952 93.16 89.0372 93.407 88.3092 93.901C87.6072 94.369 87.0222 95.006 86.5542 95.812C86.1122 96.592 85.7742 97.489 85.5402 98.503C85.3322 99.517 85.2282 100.557 85.2282 101.623C85.2282 102.689 85.3322 103.729 85.5402 104.743C85.7742 105.757 86.1122 106.667 86.5542 107.473C87.0222 108.253 87.6072 108.89 88.3092 109.384C89.0372 109.852 89.8952 110.086 90.8832 110.086C91.8712 110.086 92.7162 109.852 93.4182 109.384C94.1462 108.89 94.7312 108.253 95.1732 107.473C95.6412 106.667 95.9792 105.757 96.1872 104.743C96.4212 103.729 96.5382 102.689 96.5382 101.623ZM118.643 94.33C118.643 95.24 118.461 96.085 118.097 96.865C117.759 97.645 117.278 98.334 116.654 98.932C116.056 99.504 115.354 99.959 114.548 100.297C113.742 100.609 112.871 100.765 111.935 100.765C110.999 100.765 110.128 100.609 109.322 100.297C108.516 99.959 107.814 99.504 107.216 98.932C106.618 98.334 106.137 97.645 105.773 96.865C105.435 96.085 105.266 95.24 105.266 94.33C105.266 93.42 105.435 92.575 105.773 91.795C106.137 91.015 106.618 90.339 107.216 89.767C107.814 89.169 108.516 88.714 109.322 88.402C110.128 88.064 110.999 87.895 111.935 87.895C112.871 87.895 113.742 88.064 114.548 88.402C115.354 88.714 116.056 89.169 116.654 89.767C117.278 90.339 117.759 91.015 118.097 91.795C118.461 92.575 118.643 93.42 118.643 94.33ZM111.935 97.021C112.689 97.021 113.313 96.761 113.807 96.241C114.301 95.721 114.548 95.084 114.548 94.33C114.548 93.576 114.301 92.939 113.807 92.419C113.313 91.899 112.689 91.639 111.935 91.639C111.181 91.639 110.557 91.899 110.063 92.419C109.569 92.939 109.322 93.576 109.322 94.33C109.322 95.084 109.569 95.721 110.063 96.241C110.557 96.761 111.181 97.021 111.935 97.021ZM107.723 115L127.574 88.207H132.761L112.91 115H107.723ZM128.51 115.312C127.574 115.312 126.703 115.156 125.897 114.844C125.091 114.506 124.389 114.051 123.791 113.479C123.193 112.881 122.712 112.192 122.348 111.412C122.01 110.632 121.841 109.787 121.841 108.877C121.841 107.967 122.01 107.122 122.348 106.342C122.712 105.562 123.193 104.886 123.791 104.314C124.389 103.716 125.091 103.261 125.897 102.949C126.703 102.611 127.574 102.442 128.51 102.442C129.446 102.442 130.317 102.611 131.123 102.949C131.955 103.261 132.67 103.716 133.268 104.314C133.866 104.886 134.334 105.562 134.672 106.342C135.036 107.122 135.218 107.967 135.218 108.877C135.218 109.787 135.036 110.632 134.672 111.412C134.334 112.192 133.866 112.881 133.268 113.479C132.67 114.051 131.955 114.506 131.123 114.844C130.317 115.156 129.446 115.312 128.51 115.312ZM128.51 111.568C129.264 111.568 129.888 111.308 130.382 110.788C130.902 110.268 131.162 109.631 131.162 108.877C131.162 108.123 130.902 107.486 130.382 106.966C129.888 106.446 129.264 106.186 128.51 106.186C127.756 106.186 127.132 106.446 126.638 106.966C126.144 107.486 125.897 108.123 125.897 108.877C125.897 109.631 126.144 110.268 126.638 110.788C127.132 111.308 127.756 111.568 128.51 111.568Z" fill="white"/>
<defs>
<linearGradient id="paint0_linear_104_57" x1="-12.4345" y1="91.2145" x2="228.124" y2="92.098" gradientUnits="userSpaceOnUse">
<stop stop-color="#AA367C"/>
<stop offset="1" stop-color="#4A2FBD"/>
</linearGradient>
</defs>
</svg>
