<svg width="204" height="204" viewBox="0 0 204 204" fill="none" xmlns="http://www.w3.org/2000/svg">
<path d="M173.466 44.784C177.972 41.1763 184.601 41.8794 187.728 46.7311C194.525 57.2738 199.336 69.0063 201.888 81.3488C205.147 97.1121 204.629 113.423 200.376 128.948C196.123 144.472 188.257 158.77 177.42 170.672C166.582 182.574 153.082 191.742 138.023 197.427C122.963 203.112 106.772 205.152 90.7735 203.38C74.7747 201.609 59.4222 196.076 45.9715 187.234C32.5207 178.392 21.3535 166.492 13.3829 152.507C7.14196 141.558 2.99956 129.573 1.13415 117.169C0.275717 111.46 4.78605 106.552 10.5522 106.282V106.282C16.3184 106.012 21.1433 110.49 22.1522 116.174C23.7692 125.283 26.9377 134.074 31.5442 142.156C37.8813 153.275 46.7599 162.736 57.454 169.766C68.1482 176.796 80.3543 181.195 93.0743 182.603C105.794 184.012 118.667 182.39 130.64 177.87C142.613 173.351 153.347 166.061 161.963 156.598C170.579 147.136 176.834 135.768 180.215 123.425C183.596 111.082 184.008 98.1138 181.416 85.5811C179.533 76.4709 176.102 67.7788 171.296 59.8734C168.297 54.9409 168.96 48.3917 173.466 44.784V44.784Z" fill="url(#paint0_linear_104_60)"/>
<path d="M84.879 105.64C84.879 107.044 84.619 108.357 84.099 109.579C83.579 110.775 82.864 111.815 81.954 112.699C81.044 113.557 79.965 114.246 78.717 114.766C77.469 115.26 76.13 115.507 74.7 115.507C73.244 115.507 71.892 115.26 70.644 114.766C69.422 114.272 68.356 113.596 67.446 112.738C66.536 111.854 65.821 110.814 65.301 109.618C64.781 108.422 64.521 107.122 64.521 105.718C64.521 103.248 65.418 100.622 67.212 97.84L73.413 88.207H80.043L74.037 96.904C74.349 96.774 74.674 96.683 75.012 96.631C75.376 96.579 75.701 96.553 75.987 96.553C77.261 96.553 78.444 96.8 79.536 97.294C80.628 97.762 81.564 98.412 82.344 99.244C83.15 100.05 83.774 101.012 84.216 102.13C84.658 103.222 84.879 104.392 84.879 105.64ZM79.224 105.835C79.224 105.211 79.107 104.626 78.873 104.08C78.639 103.534 78.314 103.066 77.898 102.676C77.482 102.286 77.001 101.974 76.455 101.74C75.909 101.506 75.324 101.389 74.7 101.389C74.076 101.389 73.478 101.506 72.906 101.74C72.36 101.974 71.879 102.286 71.463 102.676C71.073 103.066 70.761 103.534 70.527 104.08C70.293 104.6 70.176 105.172 70.176 105.796C70.176 106.42 70.293 107.005 70.527 107.551C70.761 108.097 71.073 108.578 71.463 108.994C71.879 109.384 72.36 109.696 72.906 109.93C73.452 110.164 74.037 110.281 74.661 110.281C75.285 110.281 75.87 110.164 76.416 109.93C76.988 109.696 77.482 109.384 77.898 108.994C78.314 108.578 78.639 108.11 78.873 107.59C79.107 107.044 79.224 106.459 79.224 105.835ZM87.9103 101.623C87.9103 99.803 88.1443 98.061 88.6123 96.397C89.1063 94.707 89.8343 93.225 90.7963 91.951C91.7583 90.677 92.9543 89.663 94.3843 88.909C95.8143 88.129 97.4783 87.739 99.3763 87.739C101.274 87.739 102.938 88.129 104.368 88.909C105.798 89.663 106.994 90.677 107.956 91.951C108.918 93.225 109.633 94.707 110.101 96.397C110.595 98.061 110.842 99.803 110.842 101.623C110.842 103.443 110.595 105.198 110.101 106.888C109.633 108.552 108.918 110.021 107.956 111.295C106.994 112.569 105.798 113.596 104.368 114.376C102.938 115.13 101.274 115.507 99.3763 115.507C97.4783 115.507 95.8143 115.13 94.3843 114.376C92.9543 113.596 91.7583 112.569 90.7963 111.295C89.8343 110.021 89.1063 108.552 88.6123 106.888C88.1443 105.198 87.9103 103.443 87.9103 101.623ZM105.031 101.623C105.031 100.557 104.914 99.517 104.68 98.503C104.472 97.489 104.134 96.592 103.666 95.812C103.224 95.006 102.639 94.369 101.911 93.901C101.209 93.407 100.364 93.16 99.3763 93.16C98.3883 93.16 97.5303 93.407 96.8023 93.901C96.1003 94.369 95.5153 95.006 95.0473 95.812C94.6053 96.592 94.2673 97.489 94.0333 98.503C93.8253 99.517 93.7213 100.557 93.7213 101.623C93.7213 102.689 93.8253 103.729 94.0333 104.743C94.2673 105.757 94.6053 106.667 95.0473 107.473C95.5153 108.253 96.1003 108.89 96.8023 109.384C97.5303 109.852 98.3883 110.086 99.3763 110.086C100.364 110.086 101.209 109.852 101.911 109.384C102.639 108.89 103.224 108.253 103.666 107.473C104.134 106.667 104.472 105.757 104.68 104.743C104.914 103.729 105.031 102.689 105.031 101.623ZM127.136 94.33C127.136 95.24 126.954 96.085 126.59 96.865C126.252 97.645 125.771 98.334 125.147 98.932C124.549 99.504 123.847 99.959 123.041 100.297C122.235 100.609 121.364 100.765 120.428 100.765C119.492 100.765 118.621 100.609 117.815 100.297C117.009 99.959 116.307 99.504 115.709 98.932C115.111 98.334 114.63 97.645 114.266 96.865C113.928 96.085 113.759 95.24 113.759 94.33C113.759 93.42 113.928 92.575 114.266 91.795C114.63 91.015 115.111 90.339 115.709 89.767C116.307 89.169 117.009 88.714 117.815 88.402C118.621 88.064 119.492 87.895 120.428 87.895C121.364 87.895 122.235 88.064 123.041 88.402C123.847 88.714 124.549 89.169 125.147 89.767C125.771 90.339 126.252 91.015 126.59 91.795C126.954 92.575 127.136 93.42 127.136 94.33ZM120.428 97.021C121.182 97.021 121.806 96.761 122.3 96.241C122.794 95.721 123.041 95.084 123.041 94.33C123.041 93.576 122.794 92.939 122.3 92.419C121.806 91.899 121.182 91.639 120.428 91.639C119.674 91.639 119.05 91.899 118.556 92.419C118.062 92.939 117.815 93.576 117.815 94.33C117.815 95.084 118.062 95.721 118.556 96.241C119.05 96.761 119.674 97.021 120.428 97.021ZM116.216 115L136.067 88.207H141.254L121.403 115H116.216ZM137.003 115.312C136.067 115.312 135.196 115.156 134.39 114.844C133.584 114.506 132.882 114.051 132.284 113.479C131.686 112.881 131.205 112.192 130.841 111.412C130.503 110.632 130.334 109.787 130.334 108.877C130.334 107.967 130.503 107.122 130.841 106.342C131.205 105.562 131.686 104.886 132.284 104.314C132.882 103.716 133.584 103.261 134.39 102.949C135.196 102.611 136.067 102.442 137.003 102.442C137.939 102.442 138.81 102.611 139.616 102.949C140.448 103.261 141.163 103.716 141.761 104.314C142.359 104.886 142.827 105.562 143.165 106.342C143.529 107.122 143.711 107.967 143.711 108.877C143.711 109.787 143.529 110.632 143.165 111.412C142.827 112.192 142.359 112.881 141.761 113.479C141.163 114.051 140.448 114.506 139.616 114.844C138.81 115.156 137.939 115.312 137.003 115.312ZM137.003 111.568C137.757 111.568 138.381 111.308 138.875 110.788C139.395 110.268 139.655 109.631 139.655 108.877C139.655 108.123 139.395 107.486 138.875 106.966C138.381 106.446 137.757 106.186 137.003 106.186C136.249 106.186 135.625 106.446 135.131 106.966C134.637 107.486 134.39 108.123 134.39 108.877C134.39 109.631 134.637 110.268 135.131 110.788C135.625 111.308 136.249 111.568 137.003 111.568Z" fill="white"/>
<defs>
<linearGradient id="paint0_linear_104_60" x1="-12.4345" y1="91.2145" x2="228.124" y2="92.098" gradientUnits="userSpaceOnUse">
<stop stop-color="#AA367C"/>
<stop offset="1" stop-color="#4A2FBD"/>
</linearGradient>
</defs>
</svg>
