<svg width="204" height="204" viewBox="0 0 204 204" fill="none" xmlns="http://www.w3.org/2000/svg">
<path d="M173.466 44.784C177.972 41.1763 184.601 41.8798 187.729 46.7314C199.639 65.2054 205.316 87.1266 203.743 109.238C201.922 134.84 190.515 158.814 171.799 176.378C153.083 193.942 128.433 203.804 102.767 203.997C77.1013 204.19 52.3059 194.7 33.3277 177.42C14.3495 160.139 2.58372 136.339 0.377508 110.768C-1.8287 85.1958 5.68688 59.7322 21.4249 39.4568C37.163 19.1813 59.9665 5.58441 85.2863 1.37867C107.154 -2.25359 129.509 1.34941 149.016 11.4816C154.138 14.1424 155.458 20.6766 152.287 25.5002V25.5002C149.117 30.3238 142.658 31.5949 137.466 29.0703C122.419 21.7522 105.386 19.2304 88.7116 22.0001C68.5809 25.3439 50.4508 36.1542 37.9381 52.2744C25.4254 68.3946 19.4501 88.6396 21.2041 108.971C22.9582 129.302 32.3127 148.224 47.4015 161.963C62.4903 175.702 82.204 183.247 102.61 183.094C123.016 182.94 142.614 175.099 157.494 161.135C172.375 147.171 181.444 128.109 182.892 107.754C184.091 90.8937 179.989 74.1718 171.296 59.8737C168.298 54.9412 168.96 48.3917 173.466 44.784V44.784Z" fill="url(#paint0_linear_104_47)"/>
<path d="M64.326 97.606C64.326 96.202 64.586 94.902 65.106 93.706C65.626 92.484 66.341 91.444 67.251 90.586C68.161 89.702 69.227 89.013 70.449 88.519C71.697 87.999 73.049 87.739 74.505 87.739C75.961 87.739 77.3 87.986 78.522 88.48C79.77 88.974 80.849 89.663 81.759 90.547C82.669 91.405 83.384 92.432 83.904 93.628C84.424 94.824 84.684 96.124 84.684 97.528C84.684 98.75 84.437 99.959 83.943 101.155C83.475 102.325 82.825 103.612 81.993 105.016L76.143 115H69.669L74.856 106.459C74.57 106.563 74.284 106.628 73.998 106.654C73.712 106.68 73.452 106.693 73.218 106.693C71.918 106.693 70.722 106.459 69.63 105.991C68.564 105.497 67.628 104.847 66.822 104.041C66.042 103.209 65.431 102.247 64.989 101.155C64.547 100.037 64.326 98.854 64.326 97.606ZM69.981 97.411C69.981 98.035 70.098 98.62 70.332 99.166C70.566 99.712 70.891 100.18 71.307 100.57C71.723 100.96 72.204 101.272 72.75 101.506C73.296 101.74 73.881 101.857 74.505 101.857C75.129 101.857 75.714 101.74 76.26 101.506C76.832 101.272 77.313 100.96 77.703 100.57C78.119 100.18 78.444 99.725 78.678 99.205C78.912 98.659 79.029 98.074 79.029 97.45C79.029 96.826 78.912 96.241 78.678 95.695C78.444 95.149 78.119 94.681 77.703 94.291C77.313 93.875 76.845 93.55 76.299 93.316C75.753 93.082 75.168 92.965 74.544 92.965C73.92 92.965 73.322 93.082 72.75 93.316C72.204 93.55 71.723 93.875 71.307 94.291C70.891 94.681 70.566 95.149 70.332 95.695C70.098 96.215 69.981 96.787 69.981 97.411ZM88.0663 107.551C90.3283 109.319 92.6553 110.203 95.0473 110.203C95.7493 110.203 96.4123 110.125 97.0363 109.969C97.6863 109.787 98.2453 109.527 98.7133 109.189C99.1813 108.825 99.5453 108.396 99.8053 107.902C100.091 107.408 100.234 106.823 100.234 106.147C100.234 104.873 99.7143 103.911 98.6743 103.261C97.6603 102.585 96.3733 102.247 94.8133 102.247C93.7213 102.247 92.6683 102.377 91.6543 102.637C90.6403 102.897 89.6523 103.248 88.6903 103.69L89.4703 88.207H104.485V93.199H94.1893L93.9553 97.801C94.2413 97.697 94.6183 97.619 95.0863 97.567C95.5803 97.489 96.0873 97.45 96.6073 97.45C97.9593 97.45 99.2073 97.658 100.351 98.074C101.495 98.49 102.483 99.075 103.315 99.829C104.173 100.583 104.836 101.493 105.304 102.559C105.798 103.625 106.045 104.808 106.045 106.108C106.045 107.59 105.772 108.916 105.226 110.086C104.706 111.23 103.965 112.205 103.003 113.011C102.067 113.817 100.949 114.441 99.6493 114.883C98.3493 115.299 96.9323 115.507 95.3983 115.507C92.7463 115.507 90.3023 114.818 88.0663 113.44V107.551ZM121.804 94.33C121.804 95.24 121.622 96.085 121.258 96.865C120.92 97.645 120.439 98.334 119.815 98.932C119.217 99.504 118.515 99.959 117.709 100.297C116.903 100.609 116.032 100.765 115.096 100.765C114.16 100.765 113.289 100.609 112.483 100.297C111.677 99.959 110.975 99.504 110.377 98.932C109.779 98.334 109.298 97.645 108.934 96.865C108.596 96.085 108.427 95.24 108.427 94.33C108.427 93.42 108.596 92.575 108.934 91.795C109.298 91.015 109.779 90.339 110.377 89.767C110.975 89.169 111.677 88.714 112.483 88.402C113.289 88.064 114.16 87.895 115.096 87.895C116.032 87.895 116.903 88.064 117.709 88.402C118.515 88.714 119.217 89.169 119.815 89.767C120.439 90.339 120.92 91.015 121.258 91.795C121.622 92.575 121.804 93.42 121.804 94.33ZM115.096 97.021C115.85 97.021 116.474 96.761 116.968 96.241C117.462 95.721 117.709 95.084 117.709 94.33C117.709 93.576 117.462 92.939 116.968 92.419C116.474 91.899 115.85 91.639 115.096 91.639C114.342 91.639 113.718 91.899 113.224 92.419C112.73 92.939 112.483 93.576 112.483 94.33C112.483 95.084 112.73 95.721 113.224 96.241C113.718 96.761 114.342 97.021 115.096 97.021ZM110.884 115L130.735 88.207H135.922L116.071 115H110.884ZM131.671 115.312C130.735 115.312 129.864 115.156 129.058 114.844C128.252 114.506 127.55 114.051 126.952 113.479C126.354 112.881 125.873 112.192 125.509 111.412C125.171 110.632 125.002 109.787 125.002 108.877C125.002 107.967 125.171 107.122 125.509 106.342C125.873 105.562 126.354 104.886 126.952 104.314C127.55 103.716 128.252 103.261 129.058 102.949C129.864 102.611 130.735 102.442 131.671 102.442C132.607 102.442 133.478 102.611 134.284 102.949C135.116 103.261 135.831 103.716 136.429 104.314C137.027 104.886 137.495 105.562 137.833 106.342C138.197 107.122 138.379 107.967 138.379 108.877C138.379 109.787 138.197 110.632 137.833 111.412C137.495 112.192 137.027 112.881 136.429 113.479C135.831 114.051 135.116 114.506 134.284 114.844C133.478 115.156 132.607 115.312 131.671 115.312ZM131.671 111.568C132.425 111.568 133.049 111.308 133.543 110.788C134.063 110.268 134.323 109.631 134.323 108.877C134.323 108.123 134.063 107.486 133.543 106.966C133.049 106.446 132.425 106.186 131.671 106.186C130.917 106.186 130.293 106.446 129.799 106.966C129.305 107.486 129.058 108.123 129.058 108.877C129.058 109.631 129.305 110.268 129.799 110.788C130.293 111.308 130.917 111.568 131.671 111.568Z" fill="white"/>
<defs>
<linearGradient id="paint0_linear_104_47" x1="-12.4345" y1="91.2145" x2="228.124" y2="92.098" gradientUnits="userSpaceOnUse">
<stop stop-color="#AA367C"/>
<stop offset="1" stop-color="#4A2FBD"/>
</linearGradient>
</defs>
</svg>
