<svg width="300" height="100" viewBox="0 0 300 100" fill="none" xmlns="http://www.w3.org/2000/svg">
<g clip-path="url(#clip0_115_38)">
<path opacity="0.6" d="M30.9121 43.9439C30.9121 43.9439 73.8231 9.47992 118.422 29.7529C195.732 64.8929 231.726 27.8009 265.06 25.0239C313.714 20.9679 335 41.2419 335 41.2419V95.6379H30.9121V43.9439Z" fill="white"/>
<path opacity="0.6" d="M-35.668 44.6281C-35.668 44.6281 7.24203 10.1651 51.842 30.4371C129.152 65.5781 165.146 28.4851 198.481 25.7081C247.134 21.6531 268.42 41.9261 268.42 41.9261V96.3221H-35.668V44.6281Z" fill="white"/>
<path opacity="0.7" d="M43.4144 98.342C43.4144 98.342 91.6974 29.415 152.547 29.415C218.433 29.415 250.53 97.329 250.53 97.329V101.045H42.4004L43.4144 98.342Z" fill="white"/>
<path d="M-34.668 62.9982C-34.668 62.9982 21.332 17.3312 85.648 35.1592C167.483 57.8422 196.999 41.3322 232.285 30.4282C285.355 14.0292 336.332 67.3312 336.332 67.3312L337.665 103.998L-34.335 101.044L-34.668 62.9982Z" fill="white"/>
</g>
<defs>
<clipPath id="clip0_115_38">
<rect width="300" height="100" fill="white"/>
</clipPath>
</defs>
</svg>
